<svg xmlns="http://www.w3.org/2000/svg" width="1251" height="1405"><path style="fill:#020607;stroke:none" d="M0 0L0 1405L1251 1405L1251 0L0 0z"/><path style="fill:#3ddd85;stroke:none" d="M512 338C493.26 343.933 475.217 361.158 461.961 375C434.862 403.296 414.241 436.106 403.427 474C399.196 488.827 398.535 504.158 395 519L856 519C853.542 461.734 823.574 404.322 781 366.845C768.871 356.168 754.375 343.596 739 338C750.055 319.941 760.31 301.363 770.85 283C773.967 277.57 781.359 268.756 776.258 262.394C769.167 253.552 761.261 264.062 757.85 270C746.813 289.219 731.577 309.185 724 330C666.118 302.604 584.565 299.344 527 330C518.575 309.871 505.015 290.927 494.15 272C490.855 266.261 484.474 254.528 476.228 260.742C468.847 266.305 476.085 276.412 479.397 282C490.382 300.538 500.107 320.026 512 338z"/><path style="fill:#376fb1;stroke:none" d="M465 371L466 372L465 371M464 372L465 373L464 372M463 373L464 374L463 373M462 374L463 375L462 374M461 375L462 376L461 375M460 376L461 377L460 376M459 377L460 378L459 377M458 378L459 379L458 378M457 379L458 380L457 379M456 380L457 381L456 380M455 381L456 382L455 381M454 382L455 383L454 382M451 386L452 387L451 386M450 387L451 388L450 387M449 388L450 389L449 388M448 389L449 390L448 389M447 390L448 391L447 390M445 393L446 394L445 393M444 394L445 395L444 394M443 395L444 396L443 395M441 398L442 399L441 398M440 399L441 400L440 399M439 400L440 401L439 400M438 402L439 403L438 402M437 403L438 404L437 403M435 406L436 407L435 406M434 407L435 408L434 407M433 409L434 410L433 409M432 410L433 411L432 410M431 412L432 413L431 412M430 413L431 414L430 413M429 415L430 416L429 415z"/><path style="fill:#fcfffd;stroke:none" d="M516 415.468C492.014 420.041 498.81 456.883 523 452.671C547.43 448.417 540.161 410.862 516 415.468M727 415.529C702.597 421.131 711.934 458.2 736 452.468C759.444 446.883 750.369 410.165 727 415.529z"/><path style="fill:#376fb1;stroke:none" d="M428 417L429 418L428 417M427 418L428 419L427 418M426 420L427 421L426 420M425 422L426 423L425 422M424 423L425 424L424 423M423 425L424 426L423 425M422 427L423 428L422 427M421 429L422 430L421 429M420.333 430.667L420.667 431.333L420.333 430.667M419.333 432.667L419.667 433.333L419.333 432.667M418.333 434.667L418.667 435.333L418.333 434.667M417.333 436.667L417.667 437.333L417.333 436.667M416.333 438.667L416.667 439.333L416.333 438.667M415 441L416 442L415 441M414 443L415 444L414 443M259 445L260 456L261 456L259 445M413 445L414 446L413 445M412.333 447.667L412.667 448.333L412.333 447.667M411 450L412 451L411 450z"/><path style="fill:#4385f5;stroke:none" d="M259 452L259 808L259 916C259 935.17 256.398 956.44 262.039 975C281.596 1039.34 353.718 1027 406 1027L447 1027C451.077 1027 458.862 1028.5 462.031 1025.4C467.502 1020.03 470.742 1008 473.861 1001C481.047 984.875 488.941 969.045 496.309 953C514.272 913.878 532.509 874.75 551.258 836C558.631 820.764 565.971 805.459 572.861 790C575.601 783.853 580.045 777.632 581.528 771.015C582.609 766.188 576.959 763.019 574.039 759.996C567.422 753.143 562.307 744.944 559.054 736C544.683 696.492 572.06 655.75 612 648C612 634.717 608.82 616.702 612.804 604C616.491 592.246 627.993 591.88 636 599L637 599C644.632 592.751 656.385 592.373 659.566 604C663.251 617.465 660 636.029 660 650C697.549 658.691 719.48 701.319 705.934 737C703.029 744.655 698.46 751.995 692.91 758C689.818 761.345 684.681 764.841 686.025 770C691.135 789.622 704.906 809.74 713.742 828C734.173 870.227 755.116 912.369 774.691 955C782.405 971.8 790.978 988.202 798.691 1005C801.359 1010.81 804.241 1022.21 809.637 1025.97C814.365 1029.27 826.383 1027 832 1027L890 1027L890 762L890 691C890 683.395 887.964 668.874 892.028 662.228C895.688 656.242 910.974 659 917 659C935.743 659 951.92 656.901 967 644.535C993.378 622.905 1000.67 577.92 980.076 550C967.222 532.578 946.51 524.76 926 520.803C885.141 512.922 840.457 519 799 519L444 519L356 519C329.455 519 302.508 518.564 282.09 498.829C267.541 484.768 267.698 468.331 259 452z"/><path style="fill:#376fb1;stroke:none" d="M410.333 452.667L410.667 453.333L410.333 452.667M409 455L410 456L409 455M408.333 457.667L408.667 458.333L408.333 457.667M261 458L261 461L262 461L261 458M407.333 460.667L407.667 461.333L407.333 460.667M262 462L262 465L263 465L262 462M406.333 463.667L406.667 464.333L406.333 463.667M263.333 466.667L263.667 467.333L263.333 466.667M405.333 466.667L405.667 467.333L405.333 466.667M264.333 469.667L264.667 470.333L264.333 469.667M404.333 469.667L404.667 470.333L404.333 469.667M265.333 472.667L265.667 473.333L265.333 472.667M403.333 472.667L403.667 473.333L403.333 472.667M266 475L267 476L266 475M402.333 476.667L402.667 477.333L402.333 476.667M267.333 477.667L267.667 478.333L267.333 477.667M268.333 479.667L268.667 480.333L268.333 479.667M401.333 480.667L401.667 481.333L401.333 480.667M269.333 481.667L269.667 482.333L269.333 481.667M270 483L271 484L270 483M400.333 484.667L400.667 485.333L400.333 484.667M271 485L272 486L271 485M272.333 486.667L272.667 487.333L272.333 486.667M273 488L274 489L273 488M399 488L399 491L400 491L399 488M274.333 489.667L274.667 490.333L274.333 489.667M275 491L276 492L275 491M276 492L277 493L276 492M277 493L278 494L277 493M398 493L398 496L399 496L398 493M278 494L279 495L278 494M279 496L280 497L279 496M280 497L281 498L280 497M281 498L282 499L281 498M397 498L397 502L398 502L397 498M282 499L283 500L282 499M283 500L284 501L283 500M285 501L286 502L285 501M286 502L287 503L286 502M287 503L288 504L287 503M288 504L289 505L288 504M290 505L291 506L290 505M396 505L396 509L397 509L396 505M291 506L292 507L291 506M293 507L294 508L293 507M294.667 508.333L295.333 508.667L294.667 508.333M296 509L297 510L296 509M298 510L299 511L298 510M300.667 511.333L301.333 511.667L300.667 511.333M303 512L304 513L303 512M305.667 513.333L306.333 513.667L305.667 513.333M395 513L395 518L396 518L395 513M308.667 514.333L309.333 514.667L308.667 514.333M311 515L311 516L314 516L311 515M315 516L315 517L318 517L315 516M320 517L320 518L325 518L320 517M328 518L328 519L395 519L374 518L328 518M624 593L624 594L627 594L624 593M991 593L991 1027L992 1027L992 720L992 631C992 620.104 995.208 603.027 991 593M620.667 594.333L621.333 594.667L620.667 594.333M629.667 594.333L630.333 594.667L629.667 594.333M638 650C690.999 662.559 704.516 733.606 662 766C690.179 833.771 724.943 900.338 757.753 966C765.015 980.534 771.486 995.466 778.753 1010C780.925 1014.34 783.297 1023.25 787.418 1025.97C792.217 1029.15 803.381 1027 809 1027C802.599 1004.78 788.335 982.825 778.258 962C757.052 918.172 734.958 874.47 715.139 830C708.818 815.818 701.607 801.935 694.756 788C692.148 782.694 686.851 774.864 686.284 769C685.695 762.918 697.187 754.251 700.385 749C707.869 736.714 710.587 723.277 709.961 709C708.785 682.199 687.386 654.045 660 650C660 636.351 664.149 614.738 659.258 602.001C656.297 594.292 642.876 590.128 637.708 598.214C635.654 601.427 637.994 608.216 638 612L638 650M618 595L619 596L618 595M631.667 595.333L632.333 595.667L631.667 595.333M617 596L618 597L617 596M633 596L634 597L633 596M616 597L617 598L616 597M634 597L635 598L634 597M615 598L616 599L615 598M635 598L636 599L635 598M614 599L615 600L614 599M613.333 601.667L613.667 602.333L613.333 601.667M612 604L612 648L613 648C613 635.52 616.81 615.463 612 604M989 607L989 610L990 610L989 607M988.333 611.667L988.667 612.333L988.333 611.667M987.333 614.667L987.667 615.333L987.333 614.667M986.333 617.667L986.667 618.333L986.333 617.667M985 620L986 621L985 620M984 622L985 623L984 622M983 624L984 625L983 624M982 626L983 627L982 626M981 627L982 628L981 627M980 629L981 630L980 629M979.333 630.667L979.667 631.333L979.333 630.667M978 632L979 633L978 632M977 633L978 634L977 633M976.333 634.667L976.667 635.333L976.333 634.667M975 636L976 637L975 636M974 637L975 638L974 637M973 638L974 639L973 638M972 639L973 640L972 639M971 640L972 641L971 640M970 641L971 642L970 641M969 642L970 643L969 642M968 643L969 644L968 643M967 644L968 645L967 644M965 645L966 646L965 645M964 646L965 647L964 646M963 647L964 648L963 647M609 648L609 649L612 649L609 648z"/><path style="fill:#4385f5;stroke:none" d="M656.667 648.333L657.333 648.667L656.667 648.333z"/><path style="fill:#376fb1;stroke:none" d="M961 648L962 649L961 648M604 649L604 650L607 650L604 649M960 649L961 650L960 649M601.667 650.333L602.333 650.667L601.667 650.333M958 650L959 651L958 650M598.667 651.333L599.333 651.667L598.667 651.333M956.667 651.333L957.333 651.667L956.667 651.333M596 652L597 653L596 652M954.667 652.333L955.333 652.667L954.667 652.333M594 653L595 654L594 653M952.667 653.333L953.333 653.667L952.667 653.333M592 654L593 655L592 654M950.667 654.333L951.333 654.667L950.667 654.333M590 655L591 656L590 655M948 655L949 656L948 655M588 656L589 657L588 656M945.667 656.333L946.333 656.667L945.667 656.333M586 657L587 658L586 657M941.667 657.333L942.333 657.667L941.667 657.333M585 658L586 659L585 658M936 658L936 659L940 659L936 658M583 659L584 660L583 659M894 659L894 660L934 660C923.488 655.589 905.434 659 894 659M582 660L583 661L582 660M892 660L893 661L892 660M581 661L582 662L581 661M891 661L892 662L891 661M579 662L580 663L579 662M578 663L579 664L578 663M577 664L578 665L577 664M576 665L577 666L576 665M575 666L576 667L575 666M574 667L575 668L574 667M573 668L574 669L573 668M572 669L573 670L572 669M571 670L572 671L571 670M570 671L571 672L570 671M569.333 672.667L569.667 673.333L569.333 672.667M633 754L633 753C595.636 740.277 592.823 686.574 633 675C616.704 666.337 593.832 679.66 585.905 694C575.02 713.691 582.728 740.389 603 750.623C612.825 755.583 622.48 754.83 633 754M890 673L890 1027L891 1027L891 777L891 705L890 673M568 674L569 675L568 674M567 675L568 676L567 675z"/><path style="fill:#4385f5;stroke:none" d="M630 675.677C606.202 681.274 597.427 712.063 607.131 732C611.435 740.841 623.69 754.831 635 752.171C658.404 746.668 668.188 715.98 658.19 696C653.876 687.379 641.15 673.056 630 675.677z"/><path style="fill:#376fb1;stroke:none" d="M634.667 675.333L635.333 675.667L634.667 675.333M637 676L638 677L637 676M566 677L567 678L566 677M639.667 677.333L640.333 677.667L639.667 677.333M565 678L566 679L565 678M641 678L642 679L641 678M643 679L644 680L643 679M564 680L565 681L564 680M644.667 680.333L645.333 680.667L644.667 680.333M563.333 681.667L563.667 682.333L563.333 681.667M646 681L647 682L646 681M647 682L648 683L647 682M562.333 683.667L562.667 684.333L562.333 683.667M648 683L649 684L648 683M649 684L650 685L649 684M561.333 685.667L561.667 686.333L561.333 685.667M650 685L651 686L650 685M651 686L652 687L651 686M652 687L653 688L652 687M560 688L561 689L560 688M653 688L654 689L653 688M654 689L655 690L654 689M559.333 690.667L559.667 691.333L559.333 690.667M655 691L656 692L655 691M656 692L657 693L656 692M558.333 693.667L558.667 694.333L558.333 693.667M657 694L658 695L657 694M557 696L557 699L558 699L557 696M658 696L659 697L658 696M659 698L660 699L659 698M556 700L556 704L557 704L556 700M660.333 700.667L660.667 701.333L660.333 700.667M661 703L661 706L662 706L661 703M555 706L555 722L556 722L555 706M662 708L662 720L663 720L662 708M661 721L661 724L662 724L661 721M556 724L556 728L557 728L556 724M660.333 726.667L660.667 727.333L660.333 726.667M557 729L557 732L558 732L557 729M659 729L660 730L659 729M658 731L659 732L658 731M558.333 733.667L558.667 734.333L558.333 733.667M657 733L658 734L657 733M656 735L657 736L656 735M559.333 736.667L559.667 737.333L559.333 736.667M655 736L656 737L655 736M654 738L655 739L654 738M560 739L561 740L560 739M653 739L654 740L653 739M652 740L653 741L652 740M561.333 741.667L561.667 742.333L561.333 741.667M651 741L652 742L651 741M650 742L651 743L650 742M562.333 743.667L562.667 744.333L562.333 743.667M649 743L650 744L649 743M648 744L649 745L648 744M563 745L564 746L563 745M647 745L648 746L647 745M646 746L647 747L646 746M564 747L565 748L564 747M644 747L645 748L644 747M643 748L644 749L643 748M565 749L566 750L565 749M641 749L642 750L641 749M566 750L567 751L566 750M639 750L640 751L639 750M637 751L638 752L637 751M567 752L568 753L567 752M634.667 752.333L635.333 752.667L634.667 752.333M568 753L569 754L568 753M569 754L570 755L569 754M570 756L571 757L570 756M571 757L572 758L571 757M572 758L573 759L572 758M573 759L574 760L573 759M574 760L575 761L574 760M575 761L576 762L575 761M576 762L577 763L576 762M577 763L578 764L577 763M578 764L579 765L578 764M579 765L580 766L579 765M581 766L582 767L581 766M582 767L583 768L582 767M582 769L583 770L582 769M581.333 771.667L581.667 772.333L581.333 771.667M580.333 773.667L580.667 774.333L580.333 773.667M579 776L580 777L579 776M578 778L579 779L578 778M577 780L578 781L577 780M576 782L577 783L576 782M575 784L576 785L575 784M574.333 786.667L574.667 787.333L574.333 786.667M573.333 788.667L573.667 789.333L573.333 788.667M572.333 790.667L572.667 791.333L572.333 790.667M571 793L572 794L571 793M570 795L571 796L570 795M569 797L570 798L569 797M568 799L569 800L568 799M567 801L568 802L567 801M566.333 803.667L566.667 804.333L566.333 803.667M565.333 805.667L565.667 806.333L565.333 805.667M564.333 807.667L564.667 808.333L564.333 807.667M563 810L564 811L563 810M562 812L563 813L562 812M561 814L562 815L561 814M560 816L561 817L560 816M559 818L560 819L559 818M558.333 820.667L558.667 821.333L558.333 820.667M557.333 822.667L557.667 823.333L557.333 822.667M556 825L557 826L556 825M555 827L556 828L555 827M554 829L555 830L554 829M553 831L554 832L553 831M552 833L553 834L552 833M551.333 835.667L551.667 836.333L551.333 835.667M550.333 837.667L550.667 838.333L550.333 837.667M549.333 839.667L549.667 840.333L549.333 839.667M548 842L549 843L548 842M547 844L548 845L547 844M546 846L547 847L546 846M545 848L546 849L545 848M544 850L545 851L544 850M543.333 852.667L543.667 853.333L543.333 852.667M542.333 854.667L542.667 855.333L542.333 854.667M541.333 856.667L541.667 857.333L541.333 856.667M540 859L541 860L540 859M539 861L540 862L539 861M538 863L539 864L538 863M537 865L538 866L537 865M536 867L537 868L536 867M535.333 869.667L535.667 870.333L535.333 869.667M534.333 871.667L534.667 872.333L534.333 871.667M533 874L534 875L533 874M532 876L533 877L532 876M531 878L532 879L531 878M530 880L531 881L530 880M529 882L530 883L529 882M528.333 884.667L528.667 885.333L528.333 884.667M527.333 886.667L527.667 887.333L527.333 886.667M526.333 888.667L526.667 889.333L526.333 888.667M541 1027C546.642 1027 558.637 1029.29 563.362 1025.97C569.55 1021.63 572.993 1006.75 576.258 1000C588.112 975.498 599.157 950.609 610.781 926C616.712 913.443 621.314 899.02 635 893C621.854 885.073 604.605 893.784 597.796 906C576.528 944.16 557.792 986.668 541 1027M525 891L526 892L525 891M524 893L525 894L524 893z"/><path style="fill:#4385f5;stroke:none" d="M564 1027L707 1027C692.569 992.339 674.258 958.955 658.219 925C653.907 915.872 647.03 894.731 635 893.633C622.465 892.488 615.928 914.508 611.756 923C600.584 945.739 590.263 968.976 579.691 992C574.434 1003.45 567.472 1014.86 564 1027z"/><path style="fill:#376fb1;stroke:none" d="M636 893L637 894L636 893M638 894L639 895L638 894M523 895L524 896L523 895M639 895L640 896L639 895M641 896L642 897L641 896M522 897L523 898L522 897M642 897L643 898L642 897M643 898L644 899L643 898M521 899L522 900L521 899M644 899L645 900L644 899M645 900L646 901L645 900M520.333 901.667L520.667 902.333L520.333 901.667M646.333 901.667L646.667 902.333L646.333 901.667M519.333 903.667L519.667 904.333L519.333 903.667M647 903L648 904L647 903M648.333 904.667L648.667 905.333L648.333 904.667M518.333 905.667L518.667 906.333L518.333 905.667M649.333 906.667L649.667 907.333L649.333 906.667M517 908L518 909L517 908M650.333 908.667L650.667 909.333L650.333 908.667M516 910L517 911L516 910M651.333 910.667L651.667 911.333L651.333 910.667M515 912L516 913L515 912M652 913L653 914L652 913M514 914L515 915L514 914M653 915L654 916L653 915M513 916L514 917L513 916M654 917L655 918L654 917M512.333 918.667L512.667 919.333L512.333 918.667M655 919L656 920L655 919M511.333 920.667L511.667 921.333L511.333 920.667M656 921L657 922L656 921M510 923L511 924L510 923M657 923L658 924L657 923M509 925L510 926L509 925M658 925L659 926L658 925M508 927L509 928L508 927M659 927L660 928L659 927M507 929L508 930L507 929M660.333 929.667L660.667 930.333L660.333 929.667M506 931L507 932L506 931M661.333 931.667L661.667 932.333L661.333 931.667M505.333 933.667L505.667 934.333L505.333 933.667M662.333 933.667L662.667 934.333L662.333 933.667M504.333 935.667L504.667 936.333L504.333 935.667M663.333 935.667L663.667 936.333L663.333 935.667M503.333 937.667L503.667 938.333L503.333 937.667M664 938L665 939L664 938M502 940L503 941L502 940M665 940L666 941L665 940M501 942L502 943L501 942M666 942L667 943L666 942M500 944L501 945L500 944M667 944L668 945L667 944M499 946L500 947L499 946M668 946L669 947L668 946M498 948L499 949L498 948M669 948L670 949L669 948M497.333 950.667L497.667 951.333L497.333 950.667M670 950L671 951L670 950M496.333 952.667L496.667 953.333L496.333 952.667M671 952L672 953L671 952M495.333 954.667L495.667 955.333L495.333 954.667M672 954L673 955L672 954M673.333 956.667L673.667 957.333L673.333 956.667M494 957L495 958L494 957M674.333 958.667L674.667 959.333L674.333 958.667M493 959L494 960L493 959M675.333 960.667L675.667 961.333L675.333 960.667M492 961L493 962L492 961M676.333 962.667L676.667 963.333L676.333 962.667M491 963L492 964L491 963M490 965L491 966L490 965M677 965L678 966L677 965M489.333 967.667L489.667 968.333L489.333 967.667M678 967L679 968L678 967M488.333 969.667L488.667 970.333L488.333 969.667M679 969L680 970L679 969M680 971L681 972L680 971M487 972L488 973L487 972M681 973L682 974L681 973M486 974L487 975L486 974M682 975L683 976L682 975M485 976L486 977L485 976M683 977L684 978L683 977M484 978L485 979L484 978M684 979L685 980L684 979M483 980L484 981L483 980M685 981L686 982L685 981M482.333 982.667L482.667 983.333L482.333 982.667M686.333 983.667L686.667 984.333L686.333 983.667M481.333 984.667L481.667 985.333L481.333 984.667M687.333 985.667L687.667 986.333L687.333 985.667M480.333 986.667L480.667 987.333L480.333 986.667M688.333 987.667L688.667 988.333L688.333 987.667M479 989L480 990L479 989M689.333 989.667L689.667 990.333L689.333 989.667M478 991L479 992L478 991M690 992L691 993L690 992M477 993L478 994L477 993M691 994L692 995L691 994M476 995L477 996L476 995M692 996L693 997L692 996M475 997L476 998L475 997M693 998L694 999L693 998M474.333 999.667L474.667 1000.33L474.333 999.667M694 1000L695 1001L694 1000M473.333 1001.67L473.667 1002.33L473.333 1001.67M695 1002L696 1003L695 1002M472 1004L473 1005L472 1004M696 1004L697 1005L696 1004M471 1006L472 1007L471 1006M697 1006L698 1007L697 1006M470 1008L471 1009L470 1008M698 1008L699 1009L698 1008M469 1010L470 1011L469 1010M699.333 1010.67L699.667 1011.33L699.333 1010.67M468 1012L469 1013L468 1012M700.333 1012.67L700.667 1013.33L700.333 1012.67M467.333 1014.67L467.667 1015.33L467.333 1014.67M701.333 1014.67L701.667 1015.33L701.333 1014.67M466.333 1016.67L466.667 1017.33L466.333 1016.67M702.333 1016.67L702.667 1017.33L702.333 1016.67M465.333 1018.67L465.667 1019.33L465.333 1018.67M703 1019L704 1020L703 1019M464 1021L465 1022L464 1021M704 1021L705 1022L704 1021M463 1023L464 1024L463 1023M705 1023L706 1024L705 1023M462 1025L463 1026L462 1025M706 1025L707 1026L706 1025z"/></svg>