<svg xmlns="http://www.w3.org/2000/svg" width="40" height="40" fill="none" class="ProductIcon ProductNav__icon" viewBox="0 0 40 40"><title>Identity</title><path fill="url(#product-icon-identity-ProductNav-a)" d="M13.9 5.93A3.87 3.87 0 0 1 17.54 3h19.99c1.66 0 2.72 1.31 2.38 2.93l-6.2 29.11A2.58 2.58 0 0 1 31.3 37H7.32L13.9 5.93z"/><path fill="#9A66FF" d="M.1 21.93C-.24 20.31.82 19 2.48 19h19.99a3.87 3.87 0 0 1 3.62 2.93l2.79 13.11A2.58 2.58 0 0 0 31.29 37H5.31c-1.1 0-2.19-.88-2.42-1.96L.1 21.94z"/><path fill="url(#product-icon-identity-ProductNav-b)" d="M31.3 37c-1.11 0-2.2-.88-2.42-1.96l-2.79-13.1A3.87 3.87 0 0 0 22.47 19H11.14L7.33 37h23.96z"/><defs><linearGradient id="product-icon-identity-ProductNav-a" x1="23.65" x2="23.65" y1="2.99" y2="37" gradientUnits="userSpaceOnUse"><stop stop-color="#FF5091"/><stop offset="1" stop-color="#E03071"/></linearGradient><linearGradient id="product-icon-identity-ProductNav-b" x1="19.31" x2="19.31" y1="19" y2="37" gradientUnits="userSpaceOnUse"><stop stop-color="#6E00F5"/><stop offset="1" stop-color="#9860FE"/></linearGradient></defs></svg>